<svg width="11" height="10" viewBox="0 0 11 10" fill="none" xmlns="http://www.w3.org/2000/svg">
<path d="M9.47823 4.28625H6.27177V1.46391C6.27177 1.04331 5.89797 0.75 5.5 0.75C5.10207 0.75 4.72823 1.04327 4.72823 1.4638V4.28625H1.52177C1.124 4.28625 0.75 4.57949 0.75 5.00005C0.75 5.42178 1.12432 5.71386 1.52177 5.71386H4.72823V8.5362C4.72823 8.95818 5.10247 9.25 5.5 9.25C5.89765 9.25 6.27177 8.95774 6.27177 8.5362V5.71386H9.47823C9.87604 5.71386 10.25 5.42156 10.25 5.00005C10.25 4.57952 9.87616 4.28625 9.47823 4.28625Z" fill="white" stroke="white" stroke-width="0.5"/>
</svg>
